Coordinates
version=1
nRows=54
nColumns=12
inDegrees=yes

Units are S.I. units (second, meters, Newtons, ...)
Angles are in degrees

endheader
time	SC_y	SC_z	SC_x	AC_y	AC_z	AC_x	GH_y	GH_z	GH_yy	EL_x	PS_y
       0.0              -35.46          28.32          3.636          68.65         -15.34          12.62          5.481          76.63         -62.38          55.12          68.71
   0.02171              -35.45          28.32          3.637          68.65         -15.34          12.62            5.5          76.62         -62.35          55.12          68.72
   0.04342              -35.45          28.33          3.639          68.65         -15.34          12.62          5.521          76.61         -62.32          55.12          68.73
   0.06513              -35.45          28.33          3.641          68.64         -15.34          12.62          5.542          76.61         -62.29          55.11          68.74
   0.08684              -35.44          28.33          3.643          68.64         -15.34          12.62          5.565           76.6         -62.25          55.11          68.75
    0.1085              -35.44          28.33          3.645          68.64         -15.34          12.62           5.59          76.59         -62.22          55.11          68.77
    0.1303              -35.43          28.33          3.648          68.64         -15.34          12.62          5.616          76.58         -62.18          55.11          68.78
     0.152              -35.43          28.33           3.65          68.64         -15.34          12.62          5.644          76.57         -62.14          55.11          68.79
    0.1737              -35.42          28.33          3.653          68.64         -15.33          12.63          5.674          76.56         -62.09          55.11          68.81
    0.1954              -35.42          28.33          3.656          68.63         -15.33          12.63          5.706          76.55         -62.04          55.11          68.82
    0.2171              -35.41          28.33          3.659          68.63         -15.33          12.63          5.741          76.54         -61.99          55.11          68.84
    0.2388              -35.41          28.33          3.663          68.63         -15.33          12.63          5.778          76.53         -61.93          55.11          68.86
    0.2605               -35.4          28.33          3.666          68.63         -15.33          12.63          5.818          76.51         -61.87          55.11          68.88
    0.2822              -35.39          28.33           3.67          68.62         -15.33          12.63          5.861           76.5         -61.81          55.11           68.9
    0.3039              -35.39          28.34          3.675          68.62         -15.33          12.63          5.908          76.48         -61.74          55.11          68.93
    0.3256              -35.38          28.34          3.679          68.62         -15.33          12.63          5.959          76.46         -61.66          55.11          68.95
    0.3473              -35.37          28.34          3.684          68.61         -15.33          12.63          6.014          76.44         -61.58          55.11          68.98
    0.3691              -35.36          28.34           3.69          68.61         -15.33          12.63          6.074          76.42         -61.49           55.1          69.01
    0.3908              -35.35          28.34          3.696          68.61         -15.33          12.63           6.14           76.4         -61.39           55.1          69.04
    0.4125              -35.34          28.34          3.702           68.6         -15.32          12.63          6.212          76.38         -61.28           55.1          69.08
    0.4342              -35.32          28.35           3.71           68.6         -15.32          12.63          6.291          76.35         -61.17           55.1          69.12
    0.4559              -35.31          28.35          3.718          68.59         -15.32          12.63          6.378          76.32         -61.04           55.1          69.16
    0.4776              -35.29          28.35          3.726          68.58         -15.32          12.64          6.474          76.29         -60.89           55.1          69.21
    0.4993              -35.28          28.35          3.736          68.58         -15.32          12.64           6.58          76.25         -60.73          55.09          69.26
     0.521              -35.26          28.36          3.747          68.57         -15.32          12.64          6.699          76.21         -60.55          55.09          69.32
    0.5427              -35.23          28.36          3.759          68.56         -15.31          12.64          6.831          76.17         -60.36          55.09          69.39
    0.5644              -35.21          28.37          3.773          68.55         -15.31          12.64          6.979          76.12         -60.14          55.09          69.46
    0.5861              -35.18          28.37          3.788          68.54         -15.31          12.64          7.145          76.06         -59.89          55.08          69.55
    0.6078              -35.15          28.38          3.805          68.53          -15.3          12.65          7.333           76.0          -59.6          55.08          69.64
    0.6296              -35.12          28.38          3.824          68.51          -15.3          12.65          7.546          75.92         -59.28          55.07          69.75
    0.6513              -35.08          28.39          3.847           68.5          -15.3          12.65           7.79          75.84         -58.92          55.07          69.87
     0.673              -35.03           28.4          3.872          68.48         -15.29          12.65          8.069          75.74          -58.5          55.06          70.01
    0.6947              -34.98           28.4          3.902          68.46         -15.28          12.66          8.392          75.63         -58.02          55.06          70.17
    0.7164              -34.92          28.42          3.936          68.44         -15.28          12.66          8.767          75.51         -57.45          55.05          70.36
    0.7381              -34.85          28.43          3.976          68.41         -15.27          12.67          9.205          75.36          -56.8          55.04          70.58
    0.7598              -34.76          28.44          4.024          68.37         -15.26          12.68          9.722          75.18         -56.02          55.03          70.84
    0.7815              -34.66          28.46           4.08          68.33         -15.25          12.68          10.34          74.97          -55.1          55.02          71.15
    0.8032              -34.54          28.48          4.147          68.29         -15.23          12.69          11.07          74.72          -54.0           55.0          71.51
    0.8249              -34.39           28.5          4.229          68.23         -15.22           12.7          11.96          74.42         -52.66          54.98          71.96
    0.8466              -34.22          28.53          4.328          68.16          -15.2          12.72          13.05          74.04         -51.03          54.96          72.51
    0.8684               -34.0          28.57          4.451          68.07         -15.17          12.73           14.4          73.59         -49.01          54.94          73.18
    0.8901              -33.72          28.62          4.605          67.96         -15.14          12.75          16.07          73.01          -46.5           54.9          74.02
    0.9118              -33.38          28.68          4.798          67.82          -15.1          12.78          18.18          72.29         -43.34          54.86          75.08
    0.9335              -32.94          28.75          5.043          67.65         -15.05          12.81          20.87          71.38         -39.32           54.8          76.42
    0.9552              -32.38          28.84          5.358          67.42         -14.99          12.86           24.3          70.21         -34.17          54.73          78.14
    0.9769              -31.66          28.97          5.761          67.14         -14.91          12.91          28.71          68.71         -27.56          54.65          80.35
    0.9986              -30.73          29.12          6.276          66.77          -14.8          12.98          34.34          66.79         -19.12          54.53          83.17
      1.02              -29.58          29.32          6.924          66.31         -14.67          13.07          41.42          64.37         -8.511          54.39          86.72
     1.042              -28.17          29.56          7.713          65.75         -14.51          13.17          50.04          61.43           4.42          54.21          91.05
     1.064              -26.53          29.83          8.628           65.1         -14.32           13.3          60.04          58.02          19.41          54.01          96.06
     1.085              -24.76          30.13          9.619           64.4         -14.12          13.43          70.87          54.33          35.64          53.79          101.5
     1.107              -22.99          30.43          10.61          63.69         -13.92          13.57          81.69          50.64          51.87          53.57          106.9
     1.129              -21.35          30.71          11.52          63.04         -13.73          13.69          91.69          47.23          66.86          53.37          111.9
     1.151              -19.94          30.95          12.31          62.48         -13.57           13.8          100.3          44.29          79.79          53.19          116.2
